<?xml version="1.0" encoding="utf-8"?>
<!-- Generator: Adobe Illustrator 27.3.1, SVG Export Plug-In . SVG Version: 6.00 Build 0)  -->
<svg version="1.1" id="Layer_1" xmlns="http://www.w3.org/2000/svg" xmlns:xlink="http://www.w3.org/1999/xlink" x="0px" y="0px"
	 viewBox="0 0 368.5 48" style="enable-background:new 0 0 368.5 48;" xml:space="preserve">
<style type="text/css">
	.st0{fill:none;}
	.st1{display:none;}
	.st2{fill:#FFFFFF;}
</style>
<rect x="-1.9" y="0.1" class="st0" width="388" height="46.8"/>
<g class="st1">
</g>
<g>
	<path class="st2" d="M33.1,2.2v42.7h-3.2V24H7v20.9H3.7V2.2H7V21h22.9V2.2H33.1z"/>
	<path class="st2" d="M61.8,41.9h19.9c0.6,0.6,0.6,2.4,0,3H58.6V2.2h21.9c0.6,0.6,0.6,2.4,0,3H61.8V21h16c0.6,0.6,0.6,2.4,0,3h-16
		V41.9z"/>
	<path class="st2" d="M127.3,12.8c0,8.6-6.8,11.4-9.3,11.7v0.2c3,1,7.6,3.1,12.1,18.4l0.5,1.7h-3.4l-0.4-1.5
		c-3-10.8-7.4-17.3-14.7-17.3h-5.4v18.8h-3.2V2.2h8.7C119.1,2.2,127.3,3.2,127.3,12.8z M112.1,23.2c5.5,0,11.9-3,11.9-9.9
		c0-6.7-5-8.1-11.9-8.1h-5.5v18H112.1z"/>
	<path class="st2" d="M180.7,39.7c-1.7,1.9-5.6,5.9-14.8,5.9c-11.4,0-17.8-7.5-17.8-21.6c0-14.8,7.4-22.6,18.7-22.6
		c8.2,0,11.5,4.1,12.3,5.4c0,1.4-1.7,2.3-2.7,2.4c-0.9-1.4-3.7-4.7-9.9-4.7c-9.5,0-15.1,7.8-15.1,19.1c0,9.6,3.8,19,14.7,19
		c7.4,0,10.2-2.9,12.5-5.3C179.4,37.4,180.8,38.5,180.7,39.7z"/>
	<path class="st2" d="M213,42.6c6.2,0,10.8-3,13.7-6.1V2.2h3.2v34.1c0,4.1,1,5.8,2.1,7c-0.1,1-1.6,2.2-2.5,2.3
		c-1.4-1-2.6-3.3-2.7-5.6l-0.1-0.1c-1.8,2.2-7.3,5.7-14.1,5.7c-7.4,0-12.4-2.3-12.4-14.1V2.2h3.2v29.2
		C203.4,39.9,206.5,42.6,213,42.6z"/>
	<path class="st2" d="M278.1,44.9H255V2.2h3.2v39.6h19.9C278.7,42.5,278.7,44.3,278.1,44.9z"/>
	<path class="st2" d="M300.5,41.9h19.9c0.6,0.6,0.6,2.4,0,3h-23.1V2.2h21.9c0.6,0.6,0.6,2.4,0,3h-18.6V21h16c0.6,0.6,0.6,2.4,0,3
		h-16V41.9z"/>
	<path class="st2" d="M351.7,4.4c-5.5,0-9.3,2.9-9.3,8.1c0,4.6,2.9,6.8,9.7,9.3c6.8,2.6,11.4,5.3,11.4,11.9
		c0,9.1-6.8,11.9-13.8,11.9c-7.1,0-10.8-3.2-11.7-4.3c0-1.2,1.4-2.6,2.6-2.7c1,1.2,3.7,4.1,9.5,4.1c5.3,0,10.2-2.5,10.2-8.4
		c0-5.2-3.5-7.1-9.9-9.6c-7.1-2.8-11.1-5.1-11.1-11.7c0-8.1,5.7-11.5,12.8-11.5c6,0,8.7,1.7,9.6,2.5c0.2,1.3-0.9,2.8-1.9,3
		C358.8,6.2,356.5,4.4,351.7,4.4z"/>
</g>
</svg>
